REM GENRE Classical
REM DISCID 350F2406
REM COMMENT "ExactAudioCopy v0.95b4"
PERFORMER "Вагнер Рихард"
TITLE "Великие композиторы"
FILE "Вагнер Рихард - Великие композиторы.wav" WAVE
  TRACK 01 AUDIO
    TITLE "[Валькирия] Полет валькирий"
    PERFORMER "Вагнер Рихард"
    INDEX 01 00:00:00
  TRACK 02 AUDIO
    TITLE "[Тангейзер] Увертюра ми мажор"
    PERFORMER "Вагнер Рихард"
    INDEX 00 05:37:32
    INDEX 01 05:39:32
  TRACK 03 AUDIO
    TITLE "[Лоэнгрин] Вступление к III действию"
    PERFORMER "Вагнер Рихард"
    INDEX 00 20:02:20
    INDEX 01 20:04:20
  TRACK 04 AUDIO
    TITLE "[Риенци, последний трибун] Увертюра ре мажор"
    PERFORMER "Вагнер Рихард"
    INDEX 00 23:35:07
    INDEX 01 23:37:07
  TRACK 05 AUDIO
    TITLE "Симфоническая поэма 'Идиллия Зигфрида'"
    PERFORMER "Вагнер Рихард"
    INDEX 00 35:26:05
    INDEX 01 35:28:05
  TRACK 06 AUDIO
    TITLE "[Летучий голландец] Увертюра"
    PERFORMER "Вагнер Рихард"
    INDEX 00 53:42:68
    INDEX 01 53:44:68
